<svg width="30" height="30" viewBox="0 0 30 30" fill="none" xmlns="http://www.w3.org/2000/svg">
<path d="M26.8375 5.4375L25.1625 4.7375V16.025L28.2 8.7C28.7125 7.425 28.125 5.9625 26.8375 5.4375ZM2.46254 10.0625L8.66254 25C8.8451 25.4545 9.15652 25.8457 9.55849 26.1255C9.96046 26.4053 10.4354 26.5616 10.925 26.575C11.25 26.575 11.5875 26.5125 11.9125 26.375L21.125 22.5625C22.0625 22.175 22.6375 21.25 22.6625 20.325C22.675 20 22.6125 19.6375 22.5 19.3125L16.25 4.375C16.0739 3.91713 15.7638 3.52305 15.3601 3.24428C14.9565 2.96551 14.4781 2.81503 13.9875 2.8125C13.6625 2.8125 13.3375 2.8875 13.025 3L3.82504 6.8125C3.21349 7.06293 2.72643 7.54597 2.47093 8.15542C2.21543 8.76486 2.21241 9.45083 2.46254 10.0625ZM22.65 5.3125C22.65 4.64946 22.3866 4.01357 21.9178 3.54473C21.449 3.07589 20.8131 2.8125 20.15 2.8125H18.3375L22.65 13.2375" fill="white"/>
</svg>
