<svg width="30" height="30" viewBox="0 0 30 30" fill="none" xmlns="http://www.w3.org/2000/svg">
<path fill-rule="evenodd" clip-rule="evenodd" d="M2.00754 13.1009C2.15848 13.0363 2.32066 13.002 2.48484 13.0001C2.64901 12.9982 2.81196 13.0286 2.96437 13.0896C3.11678 13.1507 3.25567 13.2412 3.37311 13.3559C3.49054 13.4707 3.58422 13.6074 3.64879 13.7584L2.50004 14.2509L3.65004 13.7584L3.65379 13.7684L3.68004 13.8246L3.79754 14.0671C3.90504 14.2821 4.07129 14.5971 4.29754 14.9784C4.89412 15.9806 5.59375 16.9178 6.38504 17.7746C6.62221 18.0298 6.86819 18.2766 7.12254 18.5146C8.97504 20.2509 11.5638 21.7509 15 21.7509C16.3773 21.7572 17.7431 21.5018 19.025 20.9984C20.5588 20.3946 21.8425 19.4859 22.895 18.5009C24.3027 17.1652 25.4597 15.5882 26.3113 13.8446L26.345 13.7721L26.3513 13.7584C26.485 13.4584 26.7314 13.2231 27.0372 13.1033C27.343 12.9836 27.6837 12.989 27.9856 13.1184C28.2874 13.2478 28.5262 13.4908 28.6503 13.7949C28.7745 14.099 28.7739 14.4397 28.6488 14.7434L28.6463 14.7496L28.6413 14.7596L28.6275 14.7921L28.5775 14.9009C28.2999 15.4791 27.9907 16.0416 27.6513 16.5859C27.0265 17.5896 26.3105 18.5336 25.5125 19.4059L26.5088 20.4021C26.7433 20.6365 26.8752 20.9545 26.8753 21.2861C26.8754 21.6177 26.7438 21.9357 26.5094 22.1703C26.275 22.4048 25.9571 22.5367 25.6255 22.5368C25.2939 22.5369 24.9758 22.4053 24.7413 22.1709L23.6913 21.1209C22.9524 21.7181 22.1584 22.2438 21.32 22.6909L22.2975 24.1934C22.3898 24.3309 22.4537 24.4854 22.4858 24.6479C22.5178 24.8103 22.5172 24.9775 22.484 25.1398C22.4509 25.302 22.3858 25.456 22.2927 25.5929C22.1995 25.7298 22.08 25.8468 21.9413 25.9371C21.8025 26.0275 21.6472 26.0893 21.4843 26.1191C21.3214 26.1489 21.1542 26.1461 20.9924 26.1107C20.8307 26.0754 20.6775 26.0082 20.5419 25.9132C20.4063 25.8182 20.291 25.6971 20.2025 25.5571L18.97 23.6646C18.1213 23.9246 17.215 24.1084 16.25 24.1946V26.1259C16.25 26.4574 16.1183 26.7754 15.8839 27.0098C15.6495 27.2442 15.3316 27.3759 15 27.3759C14.6685 27.3759 14.3506 27.2442 14.1162 27.0098C13.8817 26.7754 13.75 26.4574 13.75 26.1259V24.1959C12.7813 24.1084 11.875 23.9246 11.0288 23.6646L9.79754 25.5571C9.61267 25.8252 9.33046 26.0106 9.01098 26.0738C8.6915 26.137 8.35998 26.073 8.08697 25.8954C7.81396 25.7179 7.62102 25.4408 7.54922 25.1231C7.47743 24.8055 7.53243 24.4723 7.70254 24.1946L8.68004 22.6909C7.80504 22.2284 7.01504 21.6909 6.30879 21.1196L5.25879 22.1696C5.02304 22.3973 4.70729 22.5233 4.37954 22.5205C4.05179 22.5176 3.73828 22.3862 3.50652 22.1544C3.27476 21.9227 3.1433 21.6091 3.14045 21.2814C3.1376 20.9536 3.26359 20.6379 3.49129 20.4021L4.48754 19.4059C3.60322 18.4386 2.81999 17.3836 2.15004 16.2571C1.88323 15.8072 1.63674 15.3454 1.41129 14.8734L1.37004 14.7834L1.35754 14.7571L1.35504 14.7484L1.35379 14.7459C1.35004 14.7459 1.35004 14.7434 2.50004 14.2509L1.35129 14.7446C1.28644 14.5937 1.25197 14.4315 1.24986 14.2672C1.24775 14.103 1.27803 13.9399 1.33898 13.7874C1.39993 13.6348 1.49034 13.4958 1.60506 13.3782C1.71978 13.2606 1.85654 13.1656 2.00754 13.1009Z" fill="white"/>
</svg>
