<svg width="60" height="60" viewBox="0 0 60 60" fill="none" xmlns="http://www.w3.org/2000/svg">
<path d="M26.25 50.625H33.75M26.25 50.625L27.1875 43.125H32.8125L33.75 50.625M26.25 50.625H20.625M33.75 50.625H39.375M9.375 9.375H50.625C51.6196 9.375 52.5734 9.77009 53.2766 10.4733C53.9799 11.1766 54.375 12.1304 54.375 13.125V39.375C54.375 40.3696 53.9799 41.3234 53.2766 42.0266C52.5734 42.7299 51.6196 43.125 50.625 43.125H9.375C8.38044 43.125 7.42661 42.7299 6.72335 42.0266C6.02009 41.3234 5.625 40.3696 5.625 39.375V13.125C5.625 12.1304 6.02009 11.1766 6.72335 10.4733C7.42661 9.77009 8.38044 9.375 9.375 9.375Z" stroke="white" stroke-width="3" stroke-linecap="round" stroke-linejoin="round"/>
</svg>
