<svg width="30" height="30" viewBox="0 0 30 30" fill="none" xmlns="http://www.w3.org/2000/svg">
<g clip-path="url(#clip0_69_1491)">
<path d="M26.9416 4.99999C26.828 4.98828 26.7135 4.98828 26.6 4.99999H3.26662C3.11707 5.00229 2.96852 5.02472 2.82495 5.06666L14.8666 17.0583L26.9416 4.99999Z" fill="white"/>
<path d="M28.1751 6.1582L16.0417 18.2415C15.7295 18.552 15.307 18.7262 14.8667 18.7262C14.4264 18.7262 14.004 18.552 13.6917 18.2415L1.66673 6.24987C1.62976 6.38574 1.61016 6.52574 1.6084 6.66654V23.3332C1.6084 23.7752 1.78399 24.1992 2.09655 24.5117C2.40911 24.8243 2.83304 24.9999 3.27507 24.9999H26.6084C27.0504 24.9999 27.4744 24.8243 27.7869 24.5117C28.0995 24.1992 28.2751 23.7752 28.2751 23.3332V6.66654C28.2684 6.49292 28.2347 6.3214 28.1751 6.1582ZM4.41673 23.3332H3.2584V22.1415L9.31673 16.1332L10.4917 17.3082L4.41673 23.3332ZM26.5917 23.3332H25.4251L19.3501 17.3082L20.5251 16.1332L26.5834 22.1415L26.5917 23.3332Z" fill="white"/>
</g>
<defs>
<clipPath id="clip0_69_1491">
<rect width="30" height="30" fill="white"/>
</clipPath>
</defs>
</svg>
