<svg width="30" height="30" viewBox="0 0 30 30" fill="none" xmlns="http://www.w3.org/2000/svg">
<path d="M5.9375 2.34375C5.23302 2.34375 4.55739 2.6236 4.05925 3.12175C3.5611 3.61989 3.28125 4.29552 3.28125 5C3.28125 5.70448 3.5611 6.38011 4.05925 6.87825C4.55739 7.3764 5.23302 7.65625 5.9375 7.65625C6.64198 7.65625 7.31761 7.3764 7.81575 6.87825C8.3139 6.38011 8.59375 5.70448 8.59375 5C8.59375 4.29552 8.3139 3.61989 7.81575 3.12175C7.31761 2.6236 6.64198 2.34375 5.9375 2.34375ZM3.4375 9.84375C3.39606 9.84375 3.35632 9.86021 3.32701 9.88951C3.29771 9.91882 3.28125 9.95856 3.28125 10V26.25C3.28125 26.3362 3.35125 26.4062 3.4375 26.4062H8.4375C8.47894 26.4062 8.51868 26.3898 8.54799 26.3605C8.57729 26.3312 8.59375 26.2914 8.59375 26.25V10C8.59375 9.95856 8.57729 9.91882 8.54799 9.88951C8.51868 9.86021 8.47894 9.84375 8.4375 9.84375H3.4375ZM11.5625 9.84375C11.5211 9.84375 11.4813 9.86021 11.452 9.88951C11.4227 9.91882 11.4062 9.95856 11.4062 10V26.25C11.4062 26.3362 11.4763 26.4062 11.5625 26.4062H16.5625C16.6039 26.4062 16.6437 26.3898 16.673 26.3605C16.7023 26.3312 16.7188 26.2914 16.7188 26.25V17.5C16.7188 16.8784 16.9657 16.2823 17.4052 15.8427C17.8448 15.4032 18.4409 15.1562 19.0625 15.1562C19.6841 15.1562 20.2802 15.4032 20.7198 15.8427C21.1593 16.2823 21.4062 16.8784 21.4062 17.5V26.25C21.4062 26.3362 21.4763 26.4062 21.5625 26.4062H26.5625C26.6039 26.4062 26.6437 26.3898 26.673 26.3605C26.7023 26.3312 26.7188 26.2914 26.7188 26.25V15.475C26.7188 12.4413 24.0813 10.0688 21.0625 10.3425C20.1286 10.4282 19.2138 10.6593 18.3512 11.0275L16.7188 11.7275V10C16.7188 9.95856 16.7023 9.91882 16.673 9.88951C16.6437 9.86021 16.6039 9.84375 16.5625 9.84375H11.5625Z" fill="white"/>
</svg>
