<svg width="60" height="60" viewBox="0 0 60 60" fill="none" xmlns="http://www.w3.org/2000/svg">
<path d="M19.04 55C17.92 55 16.9667 54.6067 16.18 53.82C15.3933 53.0333 15 52.0808 15 50.9625V9.0375C15 7.8875 15.3858 6.9275 16.1575 6.1575C16.9292 5.3875 17.89 5.00167 19.04 5H41.155C42.2717 5 43.2242 5.39333 44.0125 6.18C44.7992 6.96667 45.1925 7.92 45.1925 9.04V17.075C45.8142 17.1417 46.3542 17.4 46.8125 17.85C47.2708 18.2983 47.5 18.8383 47.5 19.47V23.8925C47.5 24.5242 47.2708 25.0642 46.8125 25.5125C46.3542 25.9608 45.8142 26.2192 45.1925 26.2875V50.96C45.1925 52.0767 44.7992 53.0292 44.0125 53.8175C43.2258 54.6042 42.2733 54.9975 41.155 54.9975L19.04 55ZM19.04 52.5H41.155C41.6033 52.5 41.9717 52.3558 42.26 52.0675C42.5483 51.7792 42.6925 51.4108 42.6925 50.9625V9.0375C42.6925 8.58917 42.5483 8.22083 42.26 7.9325C41.9717 7.64417 41.6033 7.5 41.155 7.5H19.04C18.59 7.5 18.2208 7.64417 17.9325 7.9325C17.6442 8.22083 17.5 8.59 17.5 9.04V50.9625C17.5 51.4108 17.6442 51.7792 17.9325 52.0675C18.2208 52.3558 18.59 52.5 19.04 52.5ZM31.47 15.2175C31.8367 14.8508 32.02 14.3933 32.02 13.845C32.02 13.2967 31.8367 12.8392 31.47 12.4725C31.1033 12.1058 30.645 11.9225 30.095 11.9225C29.545 11.9225 29.0883 12.1058 28.725 12.4725C28.3617 12.8392 28.1783 13.2975 28.175 13.8475C28.1717 14.3975 28.355 14.8542 28.725 15.2175C29.095 15.5808 29.5525 15.7642 30.0975 15.7675C30.6425 15.7708 31.1 15.5875 31.47 15.2175Z" fill="white"/>
</svg>
