<svg width="60" height="60" viewBox="0 0 60 60" fill="none" xmlns="http://www.w3.org/2000/svg">
<path d="M21.6923 54H44.3077M28.1538 15H50.7692C51.6261 15 52.4478 15.3424 53.0537 15.9519C53.6596 16.5614 54 17.388 54 18.25V41C54 41.862 53.6596 42.6886 53.0537 43.2981C52.4478 43.9076 51.6261 44.25 50.7692 44.25H15.2308C14.3739 44.25 13.5522 43.9076 12.9463 43.2981C12.3404 42.6886 12 41.862 12 41V37.75H54M39.4615 54H26.5385L28.1538 44.25H37.8462L39.4615 54Z" stroke="white" stroke-width="2.5" stroke-linecap="round" stroke-linejoin="round"/>
<path d="M6 25.5H22M9.2 6H18.8C18.8 6 22 6 22 9.25V28.75C22 28.75 22 32 18.8 32H9.2C9.2 32 6 32 6 28.75V9.25C6 9.25 6 6 9.2 6Z" stroke="white" stroke-width="2.5" stroke-linecap="round" stroke-linejoin="round"/>
</svg>
