<svg width="30" height="30" viewBox="0 0 30 30" fill="none" xmlns="http://www.w3.org/2000/svg">
<path d="M16.25 11.25H23.125L16.25 4.375V11.25ZM7.5 2.5H17.5L25 10V25C25 25.663 24.7366 26.2989 24.2678 26.7678C23.7989 27.2366 23.163 27.5 22.5 27.5H7.5C6.83696 27.5 6.20107 27.2366 5.73223 26.7678C5.26339 26.2989 5 25.663 5 25V5C5 3.6125 6.1125 2.5 7.5 2.5ZM17.5 25V23.75C17.5 22.0875 14.1625 21.25 12.5 21.25C10.8375 21.25 7.5 22.0875 7.5 23.75V25H17.5ZM12.5 15C11.837 15 11.2011 15.2634 10.7322 15.7322C10.2634 16.2011 10 16.837 10 17.5C10 18.163 10.2634 18.7989 10.7322 19.2678C11.2011 19.7366 11.837 20 12.5 20C13.163 20 13.7989 19.7366 14.2678 19.2678C14.7366 18.7989 15 18.163 15 17.5C15 16.837 14.7366 16.2011 14.2678 15.7322C13.7989 15.2634 13.163 15 12.5 15Z" fill="white"/>
</svg>
