<svg width="30" height="30" viewBox="0 0 30 30" fill="white" xmlns="http://www.w3.org/2000/svg">
<g id="icon/shuffle">
<path id="Vector" fill-rule="evenodd" clip-rule="evenodd" d="M24.3375 5.58753C24.5133 5.41197 24.7516 5.31335 25 5.31335C25.2484 5.31335 25.4867 5.41197 25.6625 5.58753L28.1625 8.08753C28.3381 8.26331 28.4367 8.50159 28.4367 8.75003C28.4367 8.99847 28.3381 9.23675 28.1625 9.41253L25.6625 11.9125C25.5767 12.0046 25.4732 12.0785 25.3582 12.1298C25.2432 12.181 25.119 12.2085 24.9932 12.2108C24.8673 12.213 24.7422 12.1898 24.6255 12.1427C24.5088 12.0955 24.4027 12.0253 24.3137 11.9363C24.2247 11.8473 24.1545 11.7413 24.1073 11.6245C24.0602 11.5078 24.037 11.3828 24.0393 11.2569C24.0415 11.131 24.069 11.0069 24.1203 10.8919C24.1715 10.7769 24.2454 10.6734 24.3375 10.5875L25.2375 9.68753H22.9963C21.9412 9.68753 21.2162 9.68753 20.6462 9.74378C20.0963 9.79753 19.7638 9.89628 19.4875 10.0525C19.2125 10.2088 18.955 10.4438 18.6262 10.8875C18.2862 11.3475 17.9113 11.9688 17.3688 12.8738L14.215 18.13C13.7025 18.9863 13.2812 19.6863 12.88 20.2288C12.4613 20.795 12.02 21.2488 11.4363 21.5788C10.8525 21.9088 10.2362 22.0538 9.53625 22.1225C8.86375 22.1875 8.0475 22.1875 7.04875 22.1875H2.5C2.25136 22.1875 2.0129 22.0888 1.83709 21.9129C1.66127 21.7371 1.5625 21.4987 1.5625 21.25C1.5625 21.0014 1.66127 20.7629 1.83709 20.5871C2.0129 20.4113 2.25136 20.3125 2.5 20.3125H7.00375C8.05875 20.3125 8.78375 20.3125 9.35375 20.2563C9.90375 20.2025 10.2362 20.1038 10.5125 19.9475C10.7875 19.7913 11.045 19.5563 11.3737 19.1125C11.7137 18.6525 12.0875 18.0313 12.6312 17.1263L15.785 11.87C16.2975 11.0138 16.7188 10.3138 17.12 9.77128C17.5387 9.20503 17.98 8.75128 18.5637 8.42128C19.1475 8.09128 19.7638 7.94628 20.4638 7.87753C21.1362 7.81253 21.9525 7.81253 22.9513 7.81253H25.2362L24.3363 6.91253C24.1607 6.73675 24.0621 6.49847 24.0621 6.25003C24.0621 6.00159 24.1619 5.76331 24.3375 5.58753ZM9.6625 9.73753C9.4175 9.69003 9.14 9.68628 8.33375 9.68628H2.5C2.25136 9.68628 2.0129 9.58751 1.83709 9.41169C1.66127 9.23588 1.5625 8.99742 1.5625 8.74878C1.5625 8.50014 1.66127 8.26168 1.83709 8.08587C2.0129 7.91005 2.25136 7.81128 2.5 7.81128H8.425C9.1075 7.81128 9.5775 7.81128 10.0225 7.89878C11.0216 8.09311 11.9303 8.60735 12.6112 9.36378C12.915 9.70128 13.1562 10.1038 13.5075 10.6888L13.5538 10.7663C13.6186 10.8719 13.6618 10.9893 13.681 11.1117C13.7002 11.2341 13.6949 11.359 13.6654 11.4794C13.636 11.5997 13.583 11.7131 13.5095 11.8128C13.4361 11.9126 13.3435 11.9967 13.2373 12.0605C13.1311 12.1243 13.0133 12.1664 12.8907 12.1843C12.7681 12.2023 12.6432 12.1958 12.5231 12.1652C12.4031 12.1345 12.2903 12.0804 12.1912 12.006C12.0922 11.9315 12.009 11.8381 11.9462 11.7313C11.5312 11.0388 11.3837 10.8038 11.2175 10.6188C10.8091 10.164 10.2624 9.85464 9.6625 9.73753ZM16.7675 17.945C16.8731 17.8815 16.9902 17.8394 17.1121 17.8211C17.234 17.8029 17.3583 17.8088 17.4779 17.8387C17.5974 17.8685 17.71 17.9216 17.809 17.995C17.908 18.0684 17.9916 18.1606 18.055 18.2663C18.4688 18.9588 18.615 19.1938 18.7825 19.3788C19.1912 19.8338 19.7362 20.1425 20.3362 20.26C20.5812 20.3075 20.8588 20.3113 21.665 20.3113H25.2362L24.3363 19.4113C24.2467 19.3248 24.1754 19.2213 24.1263 19.1069C24.0772 18.9925 24.0514 18.8694 24.0504 18.745C24.0494 18.6205 24.0732 18.497 24.1203 18.3818C24.1675 18.2667 24.2372 18.162 24.3253 18.074C24.4133 17.986 24.518 17.9165 24.6333 17.8694C24.7485 17.8223 24.872 17.7987 24.9965 17.7998C25.1209 17.8009 25.2439 17.8269 25.3583 17.876C25.4726 17.9252 25.5761 17.9967 25.6625 18.0863L28.1625 20.5863C28.3381 20.7621 28.4367 21.0003 28.4367 21.2488C28.4367 21.4972 28.3381 21.7355 28.1625 21.9113L25.6625 24.4113C25.5767 24.5034 25.4732 24.5773 25.3582 24.6285C25.2432 24.6797 25.119 24.7073 24.9932 24.7095C24.8673 24.7117 24.7422 24.6886 24.6255 24.6414C24.5088 24.5943 24.4027 24.5241 24.3137 24.4351C24.2247 24.3461 24.1545 24.24 24.1073 24.1233C24.0602 24.0065 24.037 23.8815 24.0393 23.7556C24.0415 23.6297 24.069 23.5056 24.1203 23.3906C24.1715 23.2756 24.2454 23.1721 24.3375 23.0863L25.2375 22.1863H21.5738C20.8925 22.1863 20.4237 22.1863 19.9775 22.0988C18.9784 21.9044 18.0697 21.3902 17.3888 20.6338C17.085 20.2963 16.8438 19.8938 16.4925 19.3088L16.4462 19.2313C16.3827 19.1257 16.3406 19.0086 16.3223 18.8867C16.3041 18.7648 16.3101 18.6405 16.3399 18.5209C16.3697 18.4013 16.4229 18.2888 16.4962 18.1898C16.5696 18.0907 16.6618 18.0071 16.7675 17.9438" fill="white"/>
</g>
</svg>