<svg width="200" height="202" viewBox="0 0 200 202" fill="none" xmlns="http://www.w3.org/2000/svg">
<path d="M100 202C153.019 202 196 159.019 196 106C196 52.9807 153.019 10 100 10C46.9807 10 4 52.9807 4 106C4 159.019 46.9807 202 100 202Z" fill="#B8860B"/>
<path d="M100 202C153.019 202 196 159.019 196 106C196 52.9807 153.019 10 100 10C46.9807 10 4 52.9807 4 106C4 159.019 46.9807 202 100 202Z" fill="black" fill-opacity="0.5"/>
<path d="M100 196C153.019 196 196 153.019 196 100C196 46.9807 153.019 4 100 4C46.9807 4 4 46.9807 4 100C4 153.019 46.9807 196 100 196Z" fill="#B8860B"/>
<path d="M159.482 175.444C143.55 188.006 124.049 195.202 103.776 196L103.21 181.6C120.442 180.922 137.017 174.805 150.56 164.128L159.482 175.444ZM30.9375 143.581C40.1408 158.166 53.7251 169.462 69.7432 175.852L64.4043 189.237C45.5595 181.72 29.5774 168.43 18.75 151.271L30.9375 143.581ZM195.078 86.209C197.99 106.287 194.472 126.773 185.026 144.729L172.272 138.02C180.301 122.757 183.292 105.344 180.816 88.2773L195.078 86.209ZM27.7266 61.9805C19.6978 77.243 16.707 94.6557 19.1826 111.723L4.92091 113.791C2.00852 93.7124 5.52711 73.2273 14.9727 55.2715L27.7266 61.9805ZM135.595 10.7627C154.44 18.2798 170.421 31.5703 181.248 48.7285L169.061 56.4189C159.857 41.8345 146.273 30.5379 130.255 24.1484L135.595 10.7627ZM96.7881 18.4004C79.5561 19.0785 62.9809 25.1947 49.4385 35.8721L40.5166 24.5557C56.4489 11.994 75.9487 4.79776 96.2217 4L96.7881 18.4004Z" fill="white"/>
<g filter="url(#filter0_i_76_1566)">
<path d="M100 170C138.66 170 170 138.66 170 100C170 61.3401 138.66 30 100 30C61.3401 30 30 61.3401 30 100C30 138.66 61.3401 170 100 170Z" fill="#B8860B"/>
</g>
<g filter="url(#filter1_i_76_1566)">
<path d="M100 170C138.66 170 170 138.66 170 100C170 61.3401 138.66 30 100 30C61.3401 30 30 61.3401 30 100C30 138.66 61.3401 170 100 170Z" fill="url(#paint0_radial_76_1566)"/>
</g>
<g filter="url(#filter2_i_76_1566)">
<path d="M100 28C139.764 28 172 60.2355 172 100C172 139.764 139.764 172 100 172C60.2355 172 28 139.764 28 100C28 60.2355 60.2355 28 100 28Z" stroke="black" stroke-opacity="0.1" stroke-width="4"/>
</g>
<path d="M100 157C131.48 157 157 131.48 157 100C157 68.5198 131.48 43 100 43C68.5198 43 43 68.5198 43 100C43 131.48 68.5198 157 100 157Z" stroke="black" stroke-opacity="0.1" stroke-width="3"/>
<g filter="url(#filter3_d_76_1566)">
<path d="M100 155C130.376 155 155 130.376 155 100C155 69.6243 130.376 45 100 45C69.6243 45 45 69.6243 45 100C45 130.376 69.6243 155 100 155Z" fill="#B8860B"/>
</g>
<path d="M64.5892 100V72H69.1092V100H64.5892ZM58.9892 76.12V72H68.7092V76.12H58.9892ZM82.048 100.4C80.1013 100.4 78.368 100.067 76.848 99.4C75.328 98.7067 74.048 97.7067 73.008 96.4L76.128 93.28C76.688 94.1333 77.4746 94.8133 78.488 95.32C79.528 95.8267 80.688 96.08 81.968 96.08C83.1413 96.08 84.168 95.8667 85.048 95.44C85.928 95.0133 86.6213 94.4 87.128 93.6C87.6346 92.8 87.888 91.8533 87.888 90.76C87.888 89.6133 87.6346 88.6667 87.128 87.92C86.648 87.1467 85.9946 86.5733 85.168 86.2C84.368 85.8 83.5013 85.6 82.568 85.6C81.5013 85.6 80.5413 85.72 79.688 85.96C78.8613 86.2 78.048 86.6267 77.248 87.24L77.368 84.36C77.7946 83.8 78.288 83.3467 78.848 83C79.408 82.6267 80.0613 82.3467 80.808 82.16C81.5546 81.9733 82.4346 81.88 83.448 81.88C85.4213 81.88 87.0746 82.2933 88.408 83.12C89.768 83.9467 90.7946 85.0533 91.488 86.44C92.1813 87.8 92.528 89.32 92.528 91C92.528 92.8133 92.0746 94.4267 91.168 95.84C90.288 97.2533 89.0613 98.3733 87.488 99.2C85.9146 100 84.1013 100.4 82.048 100.4ZM77.248 87.24L74.728 84.72L75.968 72H80.168L78.728 85.24L77.248 87.24ZM76.768 76.12L75.968 72H90.968V76.12H76.768ZM107.125 100.4C105.018 100.4 103.085 99.8133 101.325 98.64C99.5915 97.44 98.2048 95.76 97.1648 93.6C96.1248 91.44 95.6048 88.8933 95.6048 85.96C95.6048 83.0267 96.1115 80.4933 97.1248 78.36C98.1648 76.2 99.5515 74.5333 101.285 73.36C103.018 72.1867 104.938 71.6 107.045 71.6C109.178 71.6 111.112 72.1867 112.845 73.36C114.578 74.5333 115.952 76.2 116.965 78.36C118.005 80.4933 118.525 83.04 118.525 86C118.525 88.9333 118.005 91.48 116.965 93.64C115.952 95.8 114.578 97.4667 112.845 98.64C111.138 99.8133 109.232 100.4 107.125 100.4ZM107.045 96.08C108.432 96.08 109.632 95.7067 110.645 94.96C111.658 94.2133 112.445 93.0933 113.005 91.6C113.592 90.1067 113.885 88.2267 113.885 85.96C113.885 83.72 113.592 81.8533 113.005 80.36C112.445 78.8667 111.645 77.76 110.605 77.04C109.592 76.2933 108.405 75.92 107.045 75.92C105.685 75.92 104.485 76.2933 103.445 77.04C102.432 77.76 101.645 78.8667 101.085 80.36C100.525 81.8267 100.245 83.6933 100.245 85.96C100.245 88.2267 100.525 90.1067 101.085 91.6C101.645 93.0933 102.432 94.2133 103.445 94.96C104.485 95.7067 105.685 96.08 107.045 96.08ZM122.296 88.6V84.6H139.936V88.6H122.296ZM129.096 77.36H133.176V95.8H129.096V77.36Z" fill="white"/>
<path d="M57.0018 122V113.6H58.3818V122H57.0018ZM62.3418 122V113.6H63.7218V122H62.3418ZM57.9498 118.28V117.02H62.6418V118.28H57.9498ZM64.9208 122L68.3768 113.6H69.3368L72.7688 122H71.2808L68.5928 115.196H69.0968L66.3848 122H64.9208ZM66.6248 120.38V119.18H71.0768V120.38H66.6248ZM73.8768 122V113.6H74.8368L75.2568 115.184V122H73.8768ZM79.6968 122L74.6688 115.436L74.8368 113.6L79.8648 120.164L79.6968 122ZM79.6968 122L79.2768 120.524V113.6H80.6568V122H79.6968ZM83.4264 122V120.74H85.6344C86.2104 120.74 86.7144 120.616 87.1464 120.368C87.5864 120.12 87.9264 119.776 88.1664 119.336C88.4144 118.888 88.5384 118.372 88.5384 117.788C88.5384 117.212 88.4144 116.704 88.1664 116.264C87.9184 115.824 87.5744 115.48 87.1344 115.232C86.7024 114.984 86.2024 114.86 85.6344 114.86H83.4264V113.6H85.6704C86.2784 113.6 86.8424 113.708 87.3624 113.924C87.8824 114.132 88.3344 114.428 88.7184 114.812C89.1104 115.188 89.4144 115.632 89.6304 116.144C89.8464 116.648 89.9544 117.2 89.9544 117.8C89.9544 118.392 89.8464 118.944 89.6304 119.456C89.4144 119.968 89.1144 120.416 88.7304 120.8C88.3464 121.176 87.8944 121.472 87.3744 121.688C86.8544 121.896 86.2944 122 85.6944 122H83.4264ZM82.4784 122V113.6H83.8584V122H82.4784ZM93.7012 122.12C93.0372 122.12 92.4732 122 92.0092 121.76C91.5452 121.52 91.1292 121.168 90.7612 120.704L91.6972 119.768C91.9292 120.104 92.2052 120.368 92.5252 120.56C92.8452 120.744 93.2532 120.836 93.7492 120.836C94.2132 120.836 94.5812 120.74 94.8532 120.548C95.1332 120.356 95.2732 120.092 95.2732 119.756C95.2732 119.476 95.2012 119.248 95.0572 119.072C94.9132 118.896 94.7212 118.752 94.4812 118.64C94.2492 118.52 93.9892 118.416 93.7012 118.328C93.4212 118.232 93.1372 118.128 92.8492 118.016C92.5692 117.896 92.3092 117.748 92.0692 117.572C91.8372 117.396 91.6492 117.168 91.5052 116.888C91.3612 116.608 91.2892 116.252 91.2892 115.82C91.2892 115.324 91.4092 114.904 91.6492 114.56C91.8972 114.208 92.2292 113.94 92.6452 113.756C93.0612 113.572 93.5252 113.48 94.0372 113.48C94.5892 113.48 95.0812 113.588 95.5132 113.804C95.9532 114.02 96.3092 114.296 96.5812 114.632L95.6452 115.568C95.4052 115.296 95.1532 115.096 94.8892 114.968C94.6332 114.832 94.3372 114.764 94.0012 114.764C93.5852 114.764 93.2572 114.848 93.0172 115.016C92.7852 115.184 92.6692 115.42 92.6692 115.724C92.6692 115.98 92.7412 116.188 92.8852 116.348C93.0292 116.5 93.2172 116.632 93.4492 116.744C93.6892 116.848 93.9492 116.948 94.2292 117.044C94.5172 117.14 94.8012 117.248 95.0812 117.368C95.3692 117.488 95.6292 117.644 95.8612 117.836C96.1012 118.02 96.2932 118.26 96.4372 118.556C96.5812 118.852 96.6532 119.224 96.6532 119.672C96.6532 120.424 96.3852 121.02 95.8492 121.46C95.3212 121.9 94.6052 122.12 93.7012 122.12ZM101.38 118.832V117.632H103.48C103.768 117.632 104.02 117.576 104.236 117.464C104.46 117.344 104.636 117.18 104.764 116.972C104.892 116.756 104.956 116.504 104.956 116.216C104.956 115.928 104.892 115.68 104.764 115.472C104.636 115.256 104.46 115.092 104.236 114.98C104.02 114.86 103.768 114.8 103.48 114.8H101.38V113.6H103.552C104.08 113.6 104.552 113.708 104.968 113.924C105.392 114.14 105.724 114.444 105.964 114.836C106.212 115.228 106.336 115.688 106.336 116.216C106.336 116.744 106.212 117.204 105.964 117.596C105.724 117.988 105.392 118.292 104.968 118.508C104.552 118.724 104.08 118.832 103.552 118.832H101.38ZM100.432 122V113.6H101.812V122H100.432ZM107.58 122V113.6H108.96V122H107.58ZM108.528 122V120.74H112.92V122H108.528ZM113.272 122L116.728 113.6H117.688L121.12 122H119.632L116.944 115.196H117.448L114.736 122H113.272ZM114.976 120.38V119.18H119.428V120.38H114.976ZM123.72 118.64L120.444 113.6H122.04L124.596 117.62H123.852L126.408 113.6H127.98L124.68 118.64H123.72ZM123.528 122V117.776H124.908V122H123.528ZM128.861 122V113.6H130.241V122H128.861ZM129.809 122V120.74H134.513V122H129.809ZM129.809 118.316V117.104H134.105V118.316H129.809ZM129.809 114.86V113.6H134.453V114.86H129.809ZM136.887 122V120.74H139.095C139.671 120.74 140.175 120.616 140.607 120.368C141.047 120.12 141.387 119.776 141.627 119.336C141.875 118.888 141.999 118.372 141.999 117.788C141.999 117.212 141.875 116.704 141.627 116.264C141.379 115.824 141.035 115.48 140.595 115.232C140.163 114.984 139.663 114.86 139.095 114.86H136.887V113.6H139.131C139.739 113.6 140.303 113.708 140.823 113.924C141.343 114.132 141.795 114.428 142.179 114.812C142.571 115.188 142.875 115.632 143.091 116.144C143.307 116.648 143.415 117.2 143.415 117.8C143.415 118.392 143.307 118.944 143.091 119.456C142.875 119.968 142.575 120.416 142.191 120.8C141.807 121.176 141.355 121.472 140.835 121.688C140.315 121.896 139.755 122 139.155 122H136.887ZM135.939 122V113.6H137.319V122H135.939ZM70.1006 138.428C69.6766 138.052 69.3086 137.592 68.9966 137.048C68.6926 136.504 68.4566 135.908 68.2886 135.26C68.1206 134.612 68.0366 133.94 68.0366 133.244C68.0366 132.548 68.1206 131.876 68.2886 131.228C68.4566 130.58 68.6926 129.984 68.9966 129.44C69.3086 128.896 69.6766 128.436 70.1006 128.06L70.8566 128.732C70.3286 129.22 69.9166 129.852 69.6206 130.628C69.3326 131.396 69.1886 132.268 69.1886 133.244C69.1886 134.212 69.3326 135.084 69.6206 135.86C69.9166 136.636 70.3286 137.268 70.8566 137.756L70.1006 138.428ZM73.0026 133.832V132.632H75.1026C75.3906 132.632 75.6426 132.576 75.8586 132.464C76.0826 132.344 76.2586 132.18 76.3866 131.972C76.5146 131.756 76.5786 131.504 76.5786 131.216C76.5786 130.928 76.5146 130.68 76.3866 130.472C76.2586 130.256 76.0826 130.092 75.8586 129.98C75.6426 129.86 75.3906 129.8 75.1026 129.8H73.0026V128.6H75.1746C75.7026 128.6 76.1746 128.708 76.5906 128.924C77.0146 129.14 77.3466 129.444 77.5866 129.836C77.8346 130.228 77.9586 130.688 77.9586 131.216C77.9586 131.744 77.8346 132.204 77.5866 132.596C77.3466 132.988 77.0146 133.292 76.5906 133.508C76.1746 133.724 75.7026 133.832 75.1746 133.832H73.0026ZM72.0546 137V128.6H73.4346V137H72.0546ZM80.151 133.436V132.296H82.275C82.699 132.296 83.027 132.188 83.259 131.972C83.499 131.748 83.619 131.44 83.619 131.048C83.619 130.696 83.503 130.4 83.271 130.16C83.039 129.92 82.711 129.8 82.287 129.8H80.151V128.6H82.347C82.875 128.6 83.339 128.708 83.739 128.924C84.139 129.132 84.447 129.42 84.663 129.788C84.887 130.148 84.999 130.56 84.999 131.024C84.999 131.512 84.887 131.936 84.663 132.296C84.447 132.656 84.139 132.936 83.739 133.136C83.339 133.336 82.875 133.436 82.347 133.436H80.151ZM79.203 137V128.6H80.583V137H79.203ZM83.811 137L80.871 133.352L82.155 132.884L85.551 137H83.811ZM90.3326 137.12C89.7326 137.12 89.1726 137.008 88.6526 136.784C88.1326 136.56 87.6766 136.252 87.2846 135.86C86.8926 135.46 86.5846 135 86.3606 134.48C86.1446 133.952 86.0366 133.388 86.0366 132.788C86.0366 132.188 86.1446 131.628 86.3606 131.108C86.5846 130.588 86.8886 130.132 87.2726 129.74C87.6646 129.34 88.1166 129.032 88.6286 128.816C89.1486 128.592 89.7086 128.48 90.3086 128.48C90.9086 128.48 91.4646 128.592 91.9766 128.816C92.4966 129.032 92.9526 129.34 93.3446 129.74C93.7366 130.132 94.0406 130.592 94.2566 131.12C94.4806 131.64 94.5926 132.2 94.5926 132.8C94.5926 133.4 94.4806 133.964 94.2566 134.492C94.0406 135.012 93.7366 135.468 93.3446 135.86C92.9606 136.252 92.5086 136.56 91.9886 136.784C91.4766 137.008 90.9246 137.12 90.3326 137.12ZM90.3086 135.8C90.8766 135.8 91.3726 135.672 91.7966 135.416C92.2286 135.16 92.5646 134.808 92.8046 134.36C93.0526 133.904 93.1766 133.38 93.1766 132.788C93.1766 132.348 93.1046 131.948 92.9606 131.588C92.8246 131.22 92.6286 130.904 92.3726 130.64C92.1166 130.368 91.8126 130.16 91.4606 130.016C91.1166 129.872 90.7326 129.8 90.3086 129.8C89.7486 129.8 89.2526 129.928 88.8206 130.184C88.3966 130.432 88.0606 130.78 87.8126 131.228C87.5726 131.676 87.4526 132.196 87.4526 132.788C87.4526 133.228 87.5206 133.636 87.6566 134.012C87.8006 134.38 87.9966 134.696 88.2446 134.96C88.5006 135.224 88.8046 135.432 89.1566 135.584C89.5086 135.728 89.8926 135.8 90.3086 135.8ZM96.8769 137.12C96.3889 137.12 95.9529 137.024 95.5689 136.832C95.1929 136.632 94.8889 136.368 94.6569 136.04L95.6289 135.152C95.7649 135.36 95.9369 135.52 96.1449 135.632C96.3529 135.744 96.5809 135.8 96.8289 135.8C97.1009 135.8 97.3329 135.744 97.5249 135.632C97.7169 135.52 97.8649 135.36 97.9689 135.152C98.0729 134.944 98.1249 134.696 98.1249 134.408V128.6H99.5049V134.3C99.5049 134.86 99.3929 135.352 99.1689 135.776C98.9529 136.2 98.6489 136.532 98.2569 136.772C97.8649 137.004 97.4049 137.12 96.8769 137.12ZM101.223 137V128.6H102.603V137H101.223ZM102.171 137V135.74H106.875V137H102.171ZM102.171 133.316V132.104H106.467V133.316H102.171ZM102.171 129.86V128.6H106.815V129.86H102.171ZM111.953 137.12C111.345 137.12 110.781 137.012 110.261 136.796C109.749 136.572 109.301 136.264 108.917 135.872C108.533 135.472 108.237 135.012 108.029 134.492C107.821 133.964 107.717 133.4 107.717 132.8C107.717 132.2 107.821 131.64 108.029 131.12C108.237 130.592 108.533 130.132 108.917 129.74C109.301 129.348 109.749 129.04 110.261 128.816C110.781 128.592 111.345 128.48 111.953 128.48C112.633 128.48 113.221 128.592 113.717 128.816C114.213 129.04 114.653 129.344 115.037 129.728L114.101 130.664C113.853 130.392 113.549 130.18 113.189 130.028C112.837 129.876 112.425 129.8 111.953 129.8C111.537 129.8 111.157 129.872 110.813 130.016C110.469 130.16 110.169 130.368 109.913 130.64C109.665 130.904 109.473 131.22 109.337 131.588C109.201 131.956 109.133 132.36 109.133 132.8C109.133 133.24 109.201 133.644 109.337 134.012C109.473 134.38 109.665 134.7 109.913 134.972C110.169 135.236 110.469 135.44 110.813 135.584C111.157 135.728 111.537 135.8 111.953 135.8C112.465 135.8 112.897 135.724 113.249 135.572C113.609 135.412 113.913 135.196 114.161 134.924L115.097 135.86C114.713 136.252 114.261 136.56 113.741 136.784C113.221 137.008 112.625 137.12 111.953 137.12ZM118.264 137V128.84H119.644V137H118.264ZM115.528 129.86V128.6H122.38V129.86H115.528ZM125.441 137.12C124.777 137.12 124.213 137 123.749 136.76C123.285 136.52 122.869 136.168 122.501 135.704L123.437 134.768C123.669 135.104 123.945 135.368 124.265 135.56C124.585 135.744 124.993 135.836 125.489 135.836C125.953 135.836 126.321 135.74 126.593 135.548C126.873 135.356 127.013 135.092 127.013 134.756C127.013 134.476 126.941 134.248 126.797 134.072C126.653 133.896 126.461 133.752 126.221 133.64C125.989 133.52 125.729 133.416 125.441 133.328C125.161 133.232 124.877 133.128 124.589 133.016C124.309 132.896 124.049 132.748 123.809 132.572C123.577 132.396 123.389 132.168 123.245 131.888C123.101 131.608 123.029 131.252 123.029 130.82C123.029 130.324 123.149 129.904 123.389 129.56C123.637 129.208 123.969 128.94 124.385 128.756C124.801 128.572 125.265 128.48 125.777 128.48C126.329 128.48 126.821 128.588 127.253 128.804C127.693 129.02 128.049 129.296 128.321 129.632L127.385 130.568C127.145 130.296 126.893 130.096 126.629 129.968C126.373 129.832 126.077 129.764 125.741 129.764C125.325 129.764 124.997 129.848 124.757 130.016C124.525 130.184 124.409 130.42 124.409 130.724C124.409 130.98 124.481 131.188 124.625 131.348C124.769 131.5 124.957 131.632 125.189 131.744C125.429 131.848 125.689 131.948 125.969 132.044C126.257 132.14 126.541 132.248 126.821 132.368C127.109 132.488 127.369 132.644 127.601 132.836C127.841 133.02 128.033 133.26 128.177 133.556C128.321 133.852 128.393 134.224 128.393 134.672C128.393 135.424 128.125 136.02 127.589 136.46C127.061 136.9 126.345 137.12 125.441 137.12ZM129.901 138.428L129.145 137.756C129.673 137.268 130.081 136.636 130.369 135.86C130.665 135.084 130.813 134.212 130.813 133.244C130.813 132.268 130.665 131.396 130.369 130.628C130.081 129.852 129.673 129.22 129.145 128.732L129.901 128.06C130.325 128.436 130.689 128.896 130.993 129.44C131.305 129.984 131.545 130.58 131.713 131.228C131.881 131.876 131.965 132.548 131.965 133.244C131.965 133.94 131.881 134.612 131.713 135.26C131.545 135.908 131.305 136.504 130.993 137.048C130.689 137.592 130.325 138.052 129.901 138.428Z" fill="white"/>
<path d="M100 196C153.019 196 196 153.019 196 100C196 46.9807 153.019 4 100 4C46.9807 4 4 46.9807 4 100C4 153.019 46.9807 196 100 196Z" fill="url(#paint1_radial_76_1566)"/>
<defs>
<filter id="filter0_i_76_1566" x="30" y="30" width="140" height="144" filterUnits="userSpaceOnUse" color-interpolation-filters="sRGB">
<feFlood flood-opacity="0" result="BackgroundImageFix"/>
<feBlend mode="normal" in="SourceGraphic" in2="BackgroundImageFix" result="shape"/>
<feColorMatrix in="SourceAlpha" type="matrix" values="0 0 0 0 0 0 0 0 0 0 0 0 0 0 0 0 0 0 127 0" result="hardAlpha"/>
<feOffset dy="4"/>
<feGaussianBlur stdDeviation="2"/>
<feComposite in2="hardAlpha" operator="arithmetic" k2="-1" k3="1"/>
<feColorMatrix type="matrix" values="0 0 0 0 0 0 0 0 0 0 0 0 0 0 0 0 0 0 0.25 0"/>
<feBlend mode="normal" in2="shape" result="effect1_innerShadow_76_1566"/>
</filter>
<filter id="filter1_i_76_1566" x="30" y="30" width="140" height="144" filterUnits="userSpaceOnUse" color-interpolation-filters="sRGB">
<feFlood flood-opacity="0" result="BackgroundImageFix"/>
<feBlend mode="normal" in="SourceGraphic" in2="BackgroundImageFix" result="shape"/>
<feColorMatrix in="SourceAlpha" type="matrix" values="0 0 0 0 0 0 0 0 0 0 0 0 0 0 0 0 0 0 127 0" result="hardAlpha"/>
<feOffset dy="4"/>
<feGaussianBlur stdDeviation="2"/>
<feComposite in2="hardAlpha" operator="arithmetic" k2="-1" k3="1"/>
<feColorMatrix type="matrix" values="0 0 0 0 0 0 0 0 0 0 0 0 0 0 0 0 0 0 0.25 0"/>
<feBlend mode="normal" in2="shape" result="effect1_innerShadow_76_1566"/>
</filter>
<filter id="filter2_i_76_1566" x="26" y="26" width="148" height="152" filterUnits="userSpaceOnUse" color-interpolation-filters="sRGB">
<feFlood flood-opacity="0" result="BackgroundImageFix"/>
<feBlend mode="normal" in="SourceGraphic" in2="BackgroundImageFix" result="shape"/>
<feColorMatrix in="SourceAlpha" type="matrix" values="0 0 0 0 0 0 0 0 0 0 0 0 0 0 0 0 0 0 127 0" result="hardAlpha"/>
<feOffset dy="22"/>
<feGaussianBlur stdDeviation="2"/>
<feComposite in2="hardAlpha" operator="arithmetic" k2="-1" k3="1"/>
<feColorMatrix type="matrix" values="0 0 0 0 0 0 0 0 0 0 0 0 0 0 0 0 0 0 0.25 0"/>
<feBlend mode="normal" in2="shape" result="effect1_innerShadow_76_1566"/>
</filter>
<filter id="filter3_d_76_1566" x="40" y="45" width="120" height="122" filterUnits="userSpaceOnUse" color-interpolation-filters="sRGB">
<feFlood flood-opacity="0" result="BackgroundImageFix"/>
<feColorMatrix in="SourceAlpha" type="matrix" values="0 0 0 0 0 0 0 0 0 0 0 0 0 0 0 0 0 0 127 0" result="hardAlpha"/>
<feOffset dy="7"/>
<feGaussianBlur stdDeviation="2.5"/>
<feComposite in2="hardAlpha" operator="out"/>
<feColorMatrix type="matrix" values="0 0 0 0 0 0 0 0 0 0 0 0 0 0 0 0 0 0 0.4 0"/>
<feBlend mode="normal" in2="BackgroundImageFix" result="effect1_dropShadow_76_1566"/>
<feBlend mode="normal" in="SourceGraphic" in2="effect1_dropShadow_76_1566" result="shape"/>
</filter>
<radialGradient id="paint0_radial_76_1566" cx="0" cy="0" r="1" gradientUnits="userSpaceOnUse" gradientTransform="translate(114 121) scale(77)">
<stop stop-opacity="0"/>
<stop offset="1" stop-opacity="0.2"/>
</radialGradient>
<radialGradient id="paint1_radial_76_1566" cx="0" cy="0" r="1" gradientUnits="userSpaceOnUse" gradientTransform="translate(76.96 61.6) scale(99.84)">
<stop stop-color="white" stop-opacity="0.55"/>
<stop offset="0.55" stop-color="white" stop-opacity="0.04"/>
<stop offset="1" stop-color="white" stop-opacity="0"/>
</radialGradient>
</defs>
</svg>
